<?xml version="1.0" encoding="UTF-8" standalone="no"?>
<svg
   version="1.1"
   viewBox="0 0 240 240"
   id="svg4"
   sodipodi:docname="wifi-4.svg"
   inkscape:version="1.2.2 (b0a8486541, 2022-12-01)"
   xml:space="preserve"
   xmlns:inkscape="http://www.inkscape.org/namespaces/inkscape"
   xmlns:sodipodi="http://sodipodi.sourceforge.net/DTD/sodipodi-0.dtd"
   xmlns="http://www.w3.org/2000/svg"
   xmlns:svg="http://www.w3.org/2000/svg"><sodipodi:namedview
     id="namedview234"
     pagecolor="#ffffff"
     bordercolor="#000000"
     borderopacity="0.25"
     inkscape:showpageshadow="2"
     inkscape:pageopacity="0.0"
     inkscape:pagecheckerboard="0"
     inkscape:deskcolor="#d1d1d1"
     showgrid="false"
     inkscape:zoom="1.4395834"
     inkscape:cx="-48.62518"
     inkscape:cy="3.8205499"
     inkscape:window-width="1600"
     inkscape:window-height="880"
     inkscape:window-x="0"
     inkscape:window-y="20"
     inkscape:window-maximized="1"
     inkscape:current-layer="svg4"
     showguides="true"><sodipodi:guide
       position="118.60961,206.87238"
       orientation="0,-1"
       id="guide2220"
       inkscape:locked="false" /><sodipodi:guide
       position="131.97318,33.063031"
       orientation="0,-1"
       id="guide2224"
       inkscape:locked="false" /><sodipodi:guide
       position="226.80402,165.04388"
       orientation="1,0"
       id="guide2442"
       inkscape:locked="false" /><sodipodi:guide
       position="12.673845,181.66166"
       orientation="1,0"
       id="guide2444"
       inkscape:locked="false" /></sodipodi:namedview><defs
     id="defs8" /><path
     style="display:inline;fill:#000000"
     d="m 275.64589,-231.06446 c -16.97835,-16.99352 -20.03263,-20.48066 -18.49085,-21.11144 1.01575,-0.41557 5.92868,-0.98754 10.91761,-1.27103 10.30996,-0.58586 22.09422,1.36704 31.62995,5.24175 7.05167,2.86535 17.79927,9.27209 17.79927,10.61031 0,0.78991 -20.70401,26.88626 -21.3307,26.88626 -0.10318,0 -9.33955,-9.16013 -20.52528,-20.35585 z"
     id="path2440" /><path
     style="display:inline;fill:#000000"
     d="m 248.70133,-207.81214 c -12.2653,-15.39798 -22.53171,-28.59872 -22.81424,-29.33498 -0.32518,-0.84742 1.80335,-2.72515 5.80055,-5.11707 3.47283,-2.07813 6.50999,-3.93653 6.74925,-4.12978 0.23927,-0.19324 -1.31997,-2.14863 -3.46496,-4.3453 l -3.89999,-3.99396 2.72361,-2.72361 2.72361,-2.72361 34.46724,34.45638 34.46723,34.45637 -2.6814,2.79878 -2.6814,2.79878 -6.60516,-6.55454 -6.60515,-6.55455 -7.43933,9.49237 c -4.09162,5.2208 -7.66432,9.48757 -7.93932,9.48171 -0.275,-0.006 -10.53525,-12.609 -22.80054,-28.00699 z"
     id="path2438" /><path
     style="display:inline;fill:#000000"
     d="m 150.70133,-207.81214 c -12.2653,-15.39798 -22.50899,-28.53952 -22.76375,-29.20342 -0.599,-1.56095 8.24896,-7.33829 16.56065,-10.8134 22.37362,-9.35438 47.7797,-7.27251 69.06847,5.65973 3.32282,2.01851 5.90507,4.22227 5.73833,4.89724 -0.34268,1.3872 -45.02856,57.43297 -45.80316,57.44708 -0.275,0.005 -10.53525,-12.58924 -22.80054,-27.98723 z"
     id="path2436" /><path
     style="display:inline;fill:#ffffff;stroke-width:2.33886"
     d="M 66.011193,141.24041 C 37.4337,105.08875 13.566441,74.234824 12.972864,72.676092 11.577225,69.011274 32.192508,55.447132 51.558296,47.288209 103.68764,25.325829 162.88246,30.213681 212.48418,60.576225 c 7.742,4.739098 13.7585,9.913113 13.37,11.497819 C 225.05575,75.33094 120.94001,206.91619 119.13524,206.94932 118.4945,206.96173 94.58866,177.39208 66.011193,141.24041 Z M 77.050029,88.273192 c 28.432141,-10.948989 67.620641,-9.317644 93.300891,3.883925 5.04753,2.594815 10.04317,4.717827 11.10146,4.717827 2.08949,0 16.90105,-18.616555 16.90105,-21.242835 0,-2.511733 -30.05037,-15.318746 -44.269,-18.86677 -16.32819,-4.074426 -53.28551,-4.119928 -69.898403,-0.08617 -13.826605,3.357313 -44.268978,16.41345 -44.268978,18.986098 0,0.865408 3.385272,6.011903 7.522831,11.436614 5.054587,6.627042 8.685764,9.384781 11.067252,8.405102 1.949421,-0.801926 10.29372,-4.057139 18.542897,-7.233835 z"
     id="path2434" /></svg>
