<?xml version="1.0" encoding="UTF-8" standalone="no"?>
<svg
   version="1.1"
   viewBox="0 0 240 240"
   id="svg4"
   sodipodi:docname="wifi-5.svg"
   inkscape:version="1.2.2 (b0a8486541, 2022-12-01)"
   xml:space="preserve"
   xmlns:inkscape="http://www.inkscape.org/namespaces/inkscape"
   xmlns:sodipodi="http://sodipodi.sourceforge.net/DTD/sodipodi-0.dtd"
   xmlns="http://www.w3.org/2000/svg"
   xmlns:svg="http://www.w3.org/2000/svg"><sodipodi:namedview
     id="namedview234"
     pagecolor="#ffffff"
     bordercolor="#000000"
     borderopacity="0.25"
     inkscape:showpageshadow="2"
     inkscape:pageopacity="0.0"
     inkscape:pagecheckerboard="0"
     inkscape:deskcolor="#d1d1d1"
     showgrid="false"
     inkscape:zoom="1.4395834"
     inkscape:cx="-48.62518"
     inkscape:cy="3.8205499"
     inkscape:window-width="1600"
     inkscape:window-height="880"
     inkscape:window-x="0"
     inkscape:window-y="20"
     inkscape:window-maximized="1"
     inkscape:current-layer="svg4"
     showguides="true"><sodipodi:guide
       position="118.60961,206.87238"
       orientation="0,-1"
       id="guide2220"
       inkscape:locked="false" /><sodipodi:guide
       position="131.97318,33.063031"
       orientation="0,-1"
       id="guide2224"
       inkscape:locked="false" /><sodipodi:guide
       position="226.80402,165.04388"
       orientation="1,0"
       id="guide2442"
       inkscape:locked="false" /><sodipodi:guide
       position="12.673845,181.66166"
       orientation="1,0"
       id="guide2444"
       inkscape:locked="false" /></sodipodi:namedview><defs
     id="defs8" /><path
     style="display:inline;fill:#000000"
     d="m 275.64589,-231.06446 c -16.97835,-16.99352 -20.03263,-20.48066 -18.49085,-21.11144 1.01575,-0.41557 5.92868,-0.98754 10.91761,-1.27103 10.30996,-0.58586 22.09422,1.36704 31.62995,5.24175 7.05167,2.86535 17.79927,9.27209 17.79927,10.61031 0,0.78991 -20.70401,26.88626 -21.3307,26.88626 -0.10318,0 -9.33955,-9.16013 -20.52528,-20.35585 z"
     id="path2440" /><path
     style="display:inline;fill:#000000"
     d="m 248.70133,-207.81214 c -12.2653,-15.39798 -22.53171,-28.59872 -22.81424,-29.33498 -0.32518,-0.84742 1.80335,-2.72515 5.80055,-5.11707 3.47283,-2.07813 6.50999,-3.93653 6.74925,-4.12978 0.23927,-0.19324 -1.31997,-2.14863 -3.46496,-4.3453 l -3.89999,-3.99396 2.72361,-2.72361 2.72361,-2.72361 34.46724,34.45638 34.46723,34.45637 -2.6814,2.79878 -2.6814,2.79878 -6.60516,-6.55454 -6.60515,-6.55455 -7.43933,9.49237 c -4.09162,5.2208 -7.66432,9.48757 -7.93932,9.48171 -0.275,-0.006 -10.53525,-12.609 -22.80054,-28.00699 z"
     id="path2438" /><path
     style="display:inline;fill:#ffffff;stroke-width:2.33281"
     d="M 66.556934,140.83767 C 37.94439,104.91725 14.047876,74.260619 13.45357,72.711869 12.056222,69.070487 32.696763,55.59309 52.086328,47.486345 104.27957,25.664427 163.54694,30.521018 213.20943,60.689375 c 7.75147,4.708791 13.77535,9.849726 13.38638,11.424295 -0.79941,3.236065 -105.04273,133.97977 -106.84972,134.01268 -0.64152,0.011 -24.576646,-29.36821 -53.189156,-65.28868 z"
     id="path2436" /></svg>
