<?xml version="1.0" encoding="UTF-8" standalone="no"?>
<svg
   version="1.1"
   viewBox="0 0 240 240"
   id="svg4"
   sodipodi:docname="wifi-3.svg"
   inkscape:version="1.2.2 (b0a8486541, 2022-12-01)"
   xml:space="preserve"
   xmlns:inkscape="http://www.inkscape.org/namespaces/inkscape"
   xmlns:sodipodi="http://sodipodi.sourceforge.net/DTD/sodipodi-0.dtd"
   xmlns="http://www.w3.org/2000/svg"
   xmlns:svg="http://www.w3.org/2000/svg"><sodipodi:namedview
     id="namedview234"
     pagecolor="#ffffff"
     bordercolor="#000000"
     borderopacity="0.25"
     inkscape:showpageshadow="2"
     inkscape:pageopacity="0.0"
     inkscape:pagecheckerboard="0"
     inkscape:deskcolor="#d1d1d1"
     showgrid="false"
     inkscape:zoom="1.4395834"
     inkscape:cx="-48.62518"
     inkscape:cy="3.8205499"
     inkscape:window-width="1600"
     inkscape:window-height="880"
     inkscape:window-x="0"
     inkscape:window-y="20"
     inkscape:window-maximized="1"
     inkscape:current-layer="svg4"
     showguides="true"><sodipodi:guide
       position="118.60961,206.87238"
       orientation="0,-1"
       id="guide2220"
       inkscape:locked="false" /><sodipodi:guide
       position="131.97318,33.063031"
       orientation="0,-1"
       id="guide2224"
       inkscape:locked="false" /><sodipodi:guide
       position="226.80402,165.04388"
       orientation="1,0"
       id="guide2442"
       inkscape:locked="false" /><sodipodi:guide
       position="12.673845,181.66166"
       orientation="1,0"
       id="guide2444"
       inkscape:locked="false" /></sodipodi:namedview><defs
     id="defs8" /><path
     style="display:inline;fill:#000000"
     d="m 275.64589,-231.06446 c -16.97835,-16.99352 -20.03263,-20.48066 -18.49085,-21.11144 1.01575,-0.41557 5.92868,-0.98754 10.91761,-1.27103 10.30996,-0.58586 22.09422,1.36704 31.62995,5.24175 7.05167,2.86535 17.79927,9.27209 17.79927,10.61031 0,0.78991 -20.70401,26.88626 -21.3307,26.88626 -0.10318,0 -9.33955,-9.16013 -20.52528,-20.35585 z"
     id="path2440" /><path
     style="display:inline;fill:#000000"
     d="m 248.70133,-207.81214 c -12.2653,-15.39798 -22.53171,-28.59872 -22.81424,-29.33498 -0.32518,-0.84742 1.80335,-2.72515 5.80055,-5.11707 3.47283,-2.07813 6.50999,-3.93653 6.74925,-4.12978 0.23927,-0.19324 -1.31997,-2.14863 -3.46496,-4.3453 l -3.89999,-3.99396 2.72361,-2.72361 2.72361,-2.72361 34.46724,34.45638 34.46723,34.45637 -2.6814,2.79878 -2.6814,2.79878 -6.60516,-6.55454 -6.60515,-6.55455 -7.43933,9.49237 c -4.09162,5.2208 -7.66432,9.48757 -7.93932,9.48171 -0.275,-0.006 -10.53525,-12.609 -22.80054,-28.00699 z"
     id="path2438" /><path
     style="display:inline;fill:#000000"
     d="m 150.70133,-207.81214 c -12.2653,-15.39798 -22.50899,-28.53952 -22.76375,-29.20342 -0.599,-1.56095 8.24896,-7.33829 16.56065,-10.8134 22.37362,-9.35438 47.7797,-7.27251 69.06847,5.65973 3.32282,2.01851 5.90507,4.22227 5.73833,4.89724 -0.34268,1.3872 -45.02856,57.43297 -45.80316,57.44708 -0.275,0.005 -10.53525,-12.58924 -22.80054,-27.98723 z"
     id="path2436" /><path
     style="display:inline;fill:#000000"
     d="m 52.701333,-207.81214 c -12.265295,-15.39798 -22.508986,-28.53952 -22.763746,-29.20342 -0.599,-1.56095 8.248961,-7.33829 16.560646,-10.8134 22.37362,-9.35438 47.779701,-7.27251 69.068467,5.65973 3.32282,2.01851 5.90507,4.22227 5.73833,4.89724 -0.34268,1.3872 -45.028557,57.43297 -45.803157,57.44708 -0.275,0.005 -10.53525,-12.58924 -22.80054,-27.98723 z m 4.73781,-22.56019 c 12.20291,-4.66347 29.02239,-3.96864 40.044211,1.65427 2.16637,1.1052 4.310466,2.00945 4.764676,2.00945 0.8968,0 7.25384,-7.9293 7.25384,-9.0479 0,-1.06982 -12.897446,-6.52468 -18.999996,-8.03588 -7.007971,-1.73541 -22.869841,-1.75479 -30.000001,-0.0367 -5.9343,1.42997 -18.999996,6.99094 -18.999996,8.0867 0,0.3686 1.45294,2.56063 3.228756,4.87117 2.1694,2.82264 3.72788,3.99723 4.75,3.57996 0.83668,-0.34156 4.41801,-1.72805 7.95851,-3.08109 z"
     id="path2434" /><path
     style="display:inline;fill:#ffffff;stroke-width:2.32574"
     d="M 66.718886,140.70941 C 38.193068,104.89781 14.36898,74.334119 13.776477,72.790039 12.383363,69.159709 32.961355,55.723149 52.292127,47.64097 104.3272,25.885179 163.41496,30.727054 212.92693,60.803989 c 7.728,4.69452 13.73363,9.81988 13.34583,11.38968 -0.79699,3.22625 -104.72439,133.573751 -106.5259,133.606571 -0.63958,0.0109 -24.502183,-29.27921 -53.027974,-65.09083 z m 16.311576,-35.1098 c 17.934028,-7.461781 55.478378,-7.333771 74.726448,0.25476 7.48668,2.9516 14.45716,4.46294 15.52109,3.36523 5.41223,-5.58398 25.54376,-31.887481 25.54376,-33.374971 0,-2.59064 -29.64846,-15.21495 -44.18892,-18.81567 -16.29866,-4.036104 -53.18913,-4.081177 -69.771981,-0.0854 -18.972326,4.57169 -44.631402,16.70404 -43.202611,20.42743 1.823188,4.7512 25.193599,33.344571 27.253709,33.344571 1.002276,0 7.355598,-2.30221 14.118505,-5.11604 z"
     id="path2432" /></svg>
