<?xml version="1.0" encoding="UTF-8" standalone="no"?>
<svg
   version="1.1"
   viewBox="0 0 240 240"
   id="svg4"
   sodipodi:docname="wifi-1.svg"
   inkscape:version="1.2.2 (b0a8486541, 2022-12-01)"
   xml:space="preserve"
   xmlns:inkscape="http://www.inkscape.org/namespaces/inkscape"
   xmlns:sodipodi="http://sodipodi.sourceforge.net/DTD/sodipodi-0.dtd"
   xmlns="http://www.w3.org/2000/svg"
   xmlns:svg="http://www.w3.org/2000/svg"><sodipodi:namedview
     id="namedview234"
     pagecolor="#ffffff"
     bordercolor="#000000"
     borderopacity="0.25"
     inkscape:showpageshadow="2"
     inkscape:pageopacity="0.0"
     inkscape:pagecheckerboard="0"
     inkscape:deskcolor="#d1d1d1"
     showgrid="false"
     inkscape:zoom="1.4395834"
     inkscape:cx="-48.62518"
     inkscape:cy="59.392184"
     inkscape:window-width="1600"
     inkscape:window-height="880"
     inkscape:window-x="0"
     inkscape:window-y="20"
     inkscape:window-maximized="1"
     inkscape:current-layer="svg4"
     showguides="true"><sodipodi:guide
       position="19.64754,186.46045"
       orientation="1,0"
       id="guide2218"
       inkscape:locked="false" /><sodipodi:guide
       position="96.272945,220.35246"
       orientation="0,-1"
       id="guide2220"
       inkscape:locked="false" /><sodipodi:guide
       position="220.05245,175.65431"
       orientation="1,0"
       id="guide2222"
       inkscape:locked="false" /><sodipodi:guide
       position="143.91823,19.947554"
       orientation="0,-1"
       id="guide2224"
       inkscape:locked="false" /><sodipodi:guide
       position="226.80402,165.04388"
       orientation="1,0"
       id="guide2442"
       inkscape:locked="false" /><sodipodi:guide
       position="12.673845,181.66166"
       orientation="1,0"
       id="guide2444"
       inkscape:locked="false" /></sodipodi:namedview><defs
     id="defs8" /><path
     style="display:inline;fill:#000000"
     d="m 275.64589,-231.06446 c -16.97835,-16.99352 -20.03263,-20.48066 -18.49085,-21.11144 1.01575,-0.41557 5.92868,-0.98754 10.91761,-1.27103 10.30996,-0.58586 22.09422,1.36704 31.62995,5.24175 7.05167,2.86535 17.79927,9.27209 17.79927,10.61031 0,0.78991 -20.70401,26.88626 -21.3307,26.88626 -0.10318,0 -9.33955,-9.16013 -20.52528,-20.35585 z"
     id="path2440" /><path
     style="display:inline;fill:#000000"
     d="m 248.70133,-207.81214 c -12.2653,-15.39798 -22.53171,-28.59872 -22.81424,-29.33498 -0.32518,-0.84742 1.80335,-2.72515 5.80055,-5.11707 3.47283,-2.07813 6.50999,-3.93653 6.74925,-4.12978 0.23927,-0.19324 -1.31997,-2.14863 -3.46496,-4.3453 l -3.89999,-3.99396 2.72361,-2.72361 2.72361,-2.72361 34.46724,34.45638 34.46723,34.45637 -2.6814,2.79878 -2.6814,2.79878 -6.60516,-6.55454 -6.60515,-6.55455 -7.43933,9.49237 c -4.09162,5.2208 -7.66432,9.48757 -7.93932,9.48171 -0.275,-0.006 -10.53525,-12.609 -22.80054,-28.00699 z"
     id="path2438" /><path
     style="display:inline;fill:#000000"
     d="m 150.70133,-207.81214 c -12.2653,-15.39798 -22.50899,-28.53952 -22.76375,-29.20342 -0.599,-1.56095 8.24896,-7.33829 16.56065,-10.8134 22.37362,-9.35438 47.7797,-7.27251 69.06847,5.65973 3.32282,2.01851 5.90507,4.22227 5.73833,4.89724 -0.34268,1.3872 -45.02856,57.43297 -45.80316,57.44708 -0.275,0.005 -10.53525,-12.58924 -22.80054,-27.98723 z"
     id="path2436" /><path
     style="display:inline;fill:#000000"
     d="m 52.701333,-207.81214 c -12.265295,-15.39798 -22.508986,-28.53952 -22.763746,-29.20342 -0.599,-1.56095 8.248961,-7.33829 16.560646,-10.8134 22.37362,-9.35438 47.779701,-7.27251 69.068467,5.65973 3.32282,2.01851 5.90507,4.22227 5.73833,4.89724 -0.34268,1.3872 -45.028557,57.43297 -45.803157,57.44708 -0.275,0.005 -10.53525,-12.58924 -22.80054,-27.98723 z m 4.73781,-22.56019 c 12.20291,-4.66347 29.02239,-3.96864 40.044211,1.65427 2.16637,1.1052 4.310466,2.00945 4.764676,2.00945 0.8968,0 7.25384,-7.9293 7.25384,-9.0479 0,-1.06982 -12.897446,-6.52468 -18.999996,-8.03588 -7.007971,-1.73541 -22.869841,-1.75479 -30.000001,-0.0367 -5.9343,1.42997 -18.999996,6.99094 -18.999996,8.0867 0,0.3686 1.45294,2.56063 3.228756,4.87117 2.1694,2.82264 3.72788,3.99723 4.75,3.57996 0.83668,-0.34156 4.41801,-1.72805 7.95851,-3.08109 z"
     id="path2434" /><path
     style="display:inline;fill:#000000"
     d="m -45.298664,-207.81214 c -12.2653,-15.39798 -22.50899,-28.53952 -22.76375,-29.20342 -0.599,-1.56095 8.24896,-7.33829 16.56065,-10.8134 22.37362,-9.35438 47.7797017,-7.27251 69.068472,5.65973 3.32282,2.01851 5.90507,4.22227 5.73833,4.89724 -0.34268,1.3872 -45.028562,57.43297 -45.803162,57.44708 -0.275,0.005 -10.53525,-12.58924 -22.80054,-27.98723 z m 7.01352,-15.09623 c 7.71113,-3.20836 23.854152,-3.15332 32.1302817,0.10954 3.21906,1.26911 6.2161801,1.91894 6.6736401,1.44696 2.3271,-2.40096 10.9831002,-13.71073 10.9831002,-14.35031 0,-1.1139 -12.7480103,-6.542 -19.0000003,-8.09021 -7.0079697,-1.73541 -22.8698417,-1.75479 -30.0000017,-0.0367 -8.15757,1.9657 -19.19025,7.18227 -18.57591,8.78322 0.78392,2.04288 10.83254,14.33723 11.71833,14.33723 0.43095,0 3.1627,-0.98989 6.07056,-2.19976 z"
     id="path2432" /><path
     style="display:inline;fill:#000000"
     d="m -143.29867,-207.81214 c -12.2653,-15.39798 -22.50899,-28.53952 -22.76375,-29.20342 -0.599,-1.56095 8.24896,-7.33829 16.56065,-10.8134 22.37362,-9.35438 47.77971,-7.27251 69.068476,5.65973 3.32282,2.01851 5.90507,4.22227 5.73833,4.89724 -0.34268,1.3872 -45.028566,57.43297 -45.803166,57.44708 -0.275,0.005 -10.53525,-12.58924 -22.80054,-27.98723 z m 13.20947,-4.40729 c 6.22539,-1.88854 12.92516,-1.89488 19.1611,-0.0181 2.68835,0.80907 5.19989,1.14657 5.58121,0.75 2.46429,-2.56286 18.848766,-23.60901 18.848766,-24.21157 0,-1.11637 -12.73977,-6.543 -18.999996,-8.09325 -7.00798,-1.73541 -22.86985,-1.75479 -30.00001,-0.0367 -8.05678,1.94142 -19.18962,7.18394 -18.58752,8.75298 0.37168,0.96858 18.68714,24.41595 19.02572,24.35665 0.034,-0.006 2.27082,-0.68096 4.97073,-1.5 z"
     id="path2430" /><path
     style="display:inline;fill:#ffffff;stroke-width:2.33246"
     d="M 66.700081,140.53551 C 38.09179,104.62038 14.198818,73.968294 13.604602,72.419776 12.20746,68.778927 32.844949,55.303527 52.231611,47.197981 104.42862,25.374474 163.6743,30.234289 213.35672,60.414758 c 8.8809,5.394857 14.18925,10.020936 12.91918,11.69816 C 198.8166,108.37505 114.93991,213.99367 119.88136,205.83578 120.21369,205.28717 95.308341,176.45067 66.700081,140.53551 Z m 92.359849,-12.80845 c 20.9068,-26.28192 38.53752,-49.153865 39.17939,-50.82654 1.38499,-3.609221 -24.0322,-15.498433 -43.37109,-20.287411 -16.3458,-4.04777 -53.34293,-4.092973 -69.973729,-0.0856 -18.74614,4.517201 -44.75866,16.756981 -43.35984,20.402285 1.46611,3.820589 76.776469,98.582526 78.346699,98.582526 0.64143,0 18.2718,-21.50339 39.17857,-47.78533 z"
     id="path2404" /></svg>
